<svg xmlns="http://www.w3.org/2000/svg" viewBox="0 0 960 600" role="img" aria-labelledby="title desc">
  <title id="title">Robot Ramsey project illustration</title>
  <desc id="desc">A circuit board and robot firmware terminal.</desc>
  <rect width="960" height="600" rx="44" fill="#f7f0e7"/>
  <rect x="120" y="125" width="430" height="310" rx="34" fill="#191714"/>
  <g fill="#fffaf2">
    <circle cx="190" cy="195" r="22"/><circle cx="275" cy="195" r="22"/><circle cx="360" cy="195" r="22"/><circle cx="445" cy="195" r="22"/>
    <rect x="190" y="270" width="230" height="72" rx="16"/>
    <rect x="190" y="370" width="92" height="28" rx="14"/>
    <rect x="318" y="370" width="92" height="28" rx="14"/>
  </g>
  <g stroke="#a14f2a" stroke-width="8" stroke-linecap="round" fill="none">
    <path d="M190 195v75h115"/><path d="M275 195v75"/><path d="M360 195v75h-55"/><path d="M445 195v135h-25"/>
  </g>
  <rect x="610" y="160" width="230" height="260" rx="24" fill="#fffaf2" stroke="#d7c6b4" stroke-width="8"/>
  <text x="640" y="225" fill="#191714" font-family="monospace" font-size="30" font-weight="800">$ flash</text>
  <text x="640" y="278" fill="#a14f2a" font-family="monospace" font-size="30" font-weight="800">OK</text>
  <text x="640" y="331" fill="#6c6258" font-family="monospace" font-size="26" font-weight="800">test loop</text>
  <text x="120" y="510" fill="#6c6258" font-family="monospace" font-size="34" font-weight="800">PCB + firmware</text>
</svg>
