<svg xmlns="http://www.w3.org/2000/svg" viewBox="0 0 960 600" role="img" aria-labelledby="title desc">
  <title id="title">RRT project illustration</title>
  <desc id="desc">A rapidly exploring random tree routing around obstacles.</desc>
  <rect width="960" height="600" rx="44" fill="#fffaf2"/>
  <rect x="96" y="92" width="210" height="130" rx="28" fill="#efd8c6"/>
  <rect x="610" y="305" width="245" height="145" rx="28" fill="#efd8c6"/>
  <circle cx="160" cy="470" r="34" fill="#191714"/>
  <circle cx="790" cy="120" r="34" fill="#a14f2a"/>
  <g fill="none" stroke="#191714" stroke-width="8" stroke-linecap="round">
    <path d="M160 470l90-80 78 38 65-92 83 10 72-76 84 8 64-82 94-76"/>
    <path d="M250 390l-85-74M328 428l-22 84M393 336l-103-25M476 346l-44-92M548 270l-20-96M632 278l35-98M696 196l-4-86"/>
  </g>
  <g fill="#a14f2a">
    <circle cx="250" cy="390" r="12"/><circle cx="328" cy="428" r="12"/><circle cx="393" cy="336" r="12"/>
    <circle cx="476" cy="346" r="12"/><circle cx="548" cy="270" r="12"/><circle cx="632" cy="278" r="12"/><circle cx="696" cy="196" r="12"/>
  </g>
  <text x="96" y="548" fill="#6c6258" font-family="monospace" font-size="34" font-weight="800">RRT path planning</text>
</svg>
